<?xml version="1.0" encoding="UTF-8"?>
<svg width="139px" height="139px" viewBox="0 0 139 139" version="1.1" xmlns="http://www.w3.org/2000/svg" xmlns:xlink="http://www.w3.org/1999/xlink">
    <!-- Generator: Sketch 49.3 (51167) - http://www.bohemiancoding.com/sketch -->
    <title>independent</title>
    <desc>Created with Sketch.</desc>
    <defs></defs>
    <g id="Page-1" stroke="none" stroke-width="1" fill="none" fill-rule="evenodd">
        <g id="Desktop" transform="translate(-249.000000, -434.000000)" stroke-width="2">
            <g id="independent" transform="translate(250.000000, 435.000000)">
                <g id="Malefav" transform="translate(0.000000, 83.000000)" stroke="#4A4A4A" stroke-linecap="round" stroke-linejoin="round">
                    <path d="M27,0 C12.0883118,0 0,12.0883118 0,27 C0,41.9116882 12.0883118,54 27,54 C41.9116882,54 54,41.9116882 54,27" id="Oval-1812"></path>
                    <path d="M17.1176471,17.2012572 L17.1176471,14.5581055 C17.1176471,10.9361638 20.0513567,8 23.6691899,8 L37,8 L37,17.2215966 C38.1393974,17.4430421 39,18.4526825 39,19.6533528 L39,20.3466472 C39,21.5631677 38.1327324,22.5748493 36.9743805,22.7839179 C36.6058999,27.9352707 32.308446,32 27.0588235,32 C21.8169317,32 17.5226228,27.9363942 17.1446773,22.8020478 C15.9342472,22.6412474 15,21.5976358 15,20.3466472 L15,19.6533528 C15,18.404824 15.913506,17.3720551 17.1176471,17.2012572 Z" id="Rectangle-2323"></path>
                    <path d="M22.3041498,32 L19.9657895,36.7727273 L14.3989181,36.7727273 C11.542082,36.7727273 8.99999999,39.1758166 8.99999999,42 L8.99999999,47.1136364 M45,47 L45,41.8863636 C45,39.0679269 42.6888598,36.7727273 39.837924,36.7727273 L33.5832996,36.7727273 L31.2449393,32" id="Rectangle-2326"></path>
                </g>
                <g id="Group-2" transform="translate(29.000000, 0.000000)" stroke="#33A1F6">
                    <circle id="Oval-2" cx="54" cy="54" r="54"></circle>
                </g>
                <g id="Cat" transform="translate(59.000000, 30.000000)" stroke="#33A1F6" stroke-linecap="square" stroke-linejoin="round">
                    <path d="M43.267949,12.4409775 C45.62167,16.0496045 46.9895924,20.3598508 46.9895924,24.9895924 C46.9895924,37.6921416 36.6921416,47.9895924 23.9895924,47.9895924 C11.2870431,47.9895924 0.98959236,37.6921416 0.98959236,24.9895924 C0.98959236,20.4666616 2.29512529,16.2486544 4.54990937,12.6918525 L-5.32907052e-15,-6.30606678e-14 L13.1329789,4.70804905 C16.3666752,2.97343737 20.0632391,1.98959236 23.9895924,1.98959236 C27.875122,1.98959236 31.5356159,2.953085 34.7451905,4.65418679 L47.7279221,-6.30606678e-14 L43.267949,12.4409775 Z" id="Oval-261"></path>
                    <path d="M14,33 C14,35.7614237 16.2385763,38 19,38 L19,38 C21.7614237,38 24,35.7614237 24,33" id="Oval-265"></path>
                    <ellipse id="Oval-264" cx="24" cy="29" rx="4" ry="3"></ellipse>
                    <circle id="Oval-194" cx="15" cy="21" r="1"></circle>
                    <circle id="Oval-194" cx="33" cy="21" r="1"></circle>
                    <path d="M24,33 C24,35.7614237 26.2385763,38 29,38 L29,38 C31.7614237,38 34,35.7614237 34,33" id="Oval-265"></path>
                </g>
            </g>
        </g>
    </g>
</svg>