<?xml version="1.0" encoding="UTF-8"?>
<svg width="139px" height="139px" viewBox="0 0 139 139" version="1.1" xmlns="http://www.w3.org/2000/svg" xmlns:xlink="http://www.w3.org/1999/xlink">
    <!-- Generator: Sketch 49.3 (51167) - http://www.bohemiancoding.com/sketch -->
    <title>publicAdvocate</title>
    <desc>Created with Sketch.</desc>
    <defs></defs>
    <g id="Page-1" stroke="none" stroke-width="1" fill="none" fill-rule="evenodd">
        <g id="Desktop" transform="translate(-416.000000, -277.000000)" stroke-width="2">
            <g id="publicAdvocate" transform="translate(417.000000, 278.000000)">
                <g id="Malefav" transform="translate(0.000000, 83.000000)" stroke="#4A4A4A" stroke-linecap="round" stroke-linejoin="round">
                    <path d="M27,0 C12.0883118,0 0,12.0883118 0,27 C0,41.9116882 12.0883118,54 27,54 C41.9116882,54 54,41.9116882 54,27" id="Oval-1812"></path>
                    <path d="M17.1176471,17.2012572 L17.1176471,14.5581055 C17.1176471,10.9361638 20.0513567,8 23.6691899,8 L37,8 L37,17.2215966 C38.1393974,17.4430421 39,18.4526825 39,19.6533528 L39,20.3466472 C39,21.5631677 38.1327324,22.5748493 36.9743805,22.7839179 C36.6058999,27.9352707 32.308446,32 27.0588235,32 C21.8169317,32 17.5226228,27.9363942 17.1446773,22.8020478 C15.9342472,22.6412474 15,21.5976358 15,20.3466472 L15,19.6533528 C15,18.404824 15.913506,17.3720551 17.1176471,17.2012572 Z" id="Rectangle-2323"></path>
                    <path d="M22.3041498,32 L19.9657895,36.7727273 L14.3989181,36.7727273 C11.542082,36.7727273 8.99999999,39.1758166 8.99999999,42 L8.99999999,47.1136364 M45,47 L45,41.8863636 C45,39.0679269 42.6888598,36.7727273 39.837924,36.7727273 L33.5832996,36.7727273 L31.2449393,32" id="Rectangle-2326"></path>
                </g>
                <g id="Group-2" transform="translate(29.000000, 0.000000)" stroke="#33A1F6">
                    <circle id="Oval-2" cx="54" cy="54" r="54"></circle>
                </g>
                <g id="Cityhall" transform="translate(56.000000, 29.000000)" stroke="#33A1F6" stroke-linejoin="round">
                    <rect id="Rectangle-388" stroke-linecap="round" x="6" y="22" width="43" height="29"></rect>
                    <polygon id="Rectangle-389" stroke-linecap="round" points="49 33 55 37 55 51 49 51"></polygon>
                    <polygon id="Rectangle-389-Copy" stroke-linecap="round" transform="translate(3.000000, 42.000000) scale(-1, 1) translate(-3.000000, -42.000000) " points="0 33 6 37 6 51 0 51"></polygon>
                    <rect id="Rectangle-391" stroke-linecap="round" x="12" y="36" width="4" height="15"></rect>
                    <rect id="Rectangle-391-Copy" stroke-linecap="round" x="21" y="36" width="4" height="15"></rect>
                    <rect id="Rectangle-391-Copy-2" stroke-linecap="round" x="30" y="36" width="4" height="15"></rect>
                    <rect id="Rectangle-391-Copy-3" stroke-linecap="round" x="39" y="36" width="4" height="15"></rect>
                    <rect id="Rectangle-395" stroke-linecap="round" x="12" y="27" width="4" height="4"></rect>
                    <rect id="Rectangle-395-Copy" stroke-linecap="round" x="21" y="27" width="4" height="4"></rect>
                    <rect id="Rectangle-395-Copy-2" stroke-linecap="round" x="30" y="27" width="4" height="4"></rect>
                    <rect id="Rectangle-395-Copy-3" stroke-linecap="round" x="39" y="27" width="4" height="4"></rect>
                    <rect id="Rectangle-399" stroke-linecap="round" x="11" y="17" width="33" height="5"></rect>
                    <path d="M35,17 C35,12.581722 31.6421356,9 27.5,9 C23.3578644,9 20,12.581722 20,17" id="Oval-24" stroke-linecap="round"></path>
                    <path d="M27,9 L27,0" id="Line" stroke-linecap="square"></path>
                    <rect id="Rectangle-400" stroke-linecap="round" x="27" y="0" width="7" height="5"></rect>
                </g>
            </g>
        </g>
    </g>
</svg>